<svg preserveAspectRatio="none" width="100%" height="100%" overflow="visible" style="display: block;" viewBox="0 0 48 48" fill="none" xmlns="http://www.w3.org/2000/svg">
<g id="Button Primary">
<rect width="48" height="48" rx="24" fill="var(--fill-0, #131315)"/>
<path id="LinkedIn" d="M32.5714 14C33.3304 14 34 14.6696 34 15.4732V32.5714C34 33.375 33.3304 34 32.5714 34H15.3839C14.625 34 14 33.375 14 32.5714V15.4732C14 14.6696 14.625 14 15.3839 14H32.5714ZM20.0268 31.1429V21.6339H17.0804V31.1429H20.0268ZM18.5536 20.2946C19.4911 20.2946 20.25 19.5357 20.25 18.5982C20.25 17.6607 19.4911 16.8571 18.5536 16.8571C17.5714 16.8571 16.8125 17.6607 16.8125 18.5982C16.8125 19.5357 17.5714 20.2946 18.5536 20.2946ZM31.1429 31.1429V25.9196C31.1429 23.375 30.5625 21.3661 27.5714 21.3661C26.1429 21.3661 25.1607 22.1696 24.7589 22.9286H24.7143V21.6339H21.9018V31.1429H24.8482V26.4554C24.8482 25.2054 25.0714 24 26.6339 24C28.1518 24 28.1518 25.4286 28.1518 26.5V31.1429H31.1429Z" fill="var(--fill-0, white)"/>
</g>
</svg>
